# xmcd CD database file generated by LOLA_Freedb v0.9beta0
# 
# Track frame offsets:
#      150
#      14483
#      26490
#      39017
#      51537
#      63912
#      79973
#      90638
#      103646
#      118745
#      130322
#      142410
# 
# Disc length: 2052 seconds
# 
# Revision: 0 
# Processed by: cddbd v1.5.2PL0 Copyright (c) Steve Scherf et al.
# Submitted via: LOLA_Freedb v0.9beta0
# 
DISCID=a708020c
DTITLE=Bobby Lord - Especially For You
DYEAR=1984
DGENRE=
TTITLE0=Bobby Lord - You And Me Against The World
TTITLE1=Bobby Lord - Detroit City
TTITLE2=Bobby Lord - Your Song
TTITLE3=Bobby Lord - Heartaches By The Number
TTITLE4=Bobby Lord - Lookin' For A Cold Lonely Winter
TTITLE5=Bobby Lord - Unchained Melody
TTITLE6=Bobby Lord - Hawkeye
TTITLE7=Bobby Lord - Look Of Love
TTITLE8=Bobby Lord - Fall Away
TTITLE9=Bobby Lord - Good Ole Song
TTITLE10=Bobby Lord - There Goes My Everything
TTITLE11=Bobby Lord - Lord's Prayer
EXTD=
EXTT0=
EXTT1=
EXTT2=
EXTT3=
EXTT4=
EXTT5=
EXTT6=
EXTT7=
EXTT8=
EXTT9=
EXTT10=
EXTT11=
PLAYORDER=
